<svg width="153" height="50" viewBox="0 0 153 50" fill="none" xmlns="http://www.w3.org/2000/svg">
<g id="Vector">
<path d="M124.472 9.88913V16.2352C124.472 16.8216 123.99 17.2648 123.353 17.2648H119.819C119.197 17.2648 118.731 16.8216 118.731 16.236V9.88913C118.731 9.30049 119.2 8.85657 119.819 8.85657H123.353C123.992 8.85657 124.472 9.29748 124.472 9.88913ZM127.611 9.31406C127.611 7.55041 126.083 6.11312 124.199 6.11312H118.944C117.066 6.11312 115.586 7.51876 115.586 9.31406V16.8058C115.586 18.6003 117.066 20.006 118.944 20.006H124.199C126.086 20.006 127.611 18.5709 127.611 16.805V9.31406ZM139.088 15.6044C139.088 16.0559 138.747 16.3754 137.937 16.6761C136.875 17.0771 135.452 17.3801 134.623 17.3801C133.901 17.3801 133.503 17.0123 133.503 16.3483V6.11312H130.361V17.0899C130.361 19.0329 131.702 20.2909 133.776 20.2909C135.015 20.2909 137.33 19.8688 139.185 19.1618L139.296 20.006H142.233V6.11312H139.091V15.6044H139.088ZM63.7565 35.0859H71.913V32.2294H63.7558V27.0214H72.7247V24.1679H60.5262V43.5476H72.7557V40.6346H63.7565V35.0859ZM83.6043 29.3706C82.2778 29.3706 79.9678 29.8786 78.2237 30.5449V29.6578H75.1471V43.5484H78.2832V34.1129C78.2832 33.6637 78.6299 33.3411 79.4394 33.0404C80.4057 32.6748 81.8573 32.2799 82.7519 32.2799C83.4762 32.2799 83.8742 32.6454 83.8742 33.3124V43.5446H87.0163V32.5678C87.0163 30.627 85.6755 29.3706 83.6043 29.3706ZM92.9027 35.3414V33.3155C92.9027 32.7268 93.3745 32.2829 93.9933 32.2829H97.1354C97.7745 32.2829 98.2607 32.7268 98.2607 33.3155V35.3414H92.9027ZM97.9223 29.6585H93.116C91.2378 29.6585 89.7688 31.0634 89.7688 32.858V40.3474C89.7688 42.1427 91.2408 43.5476 93.116 43.5476H100.243V40.8931H93.9933C93.3745 40.8931 92.9027 40.4492 92.9027 39.8605V37.9665H101.303V32.8557C101.303 31.0634 99.8171 29.6585 97.9223 29.6585ZM122.501 39.7776C122.501 40.3633 122.018 40.8072 121.385 40.8072H118.001C117.376 40.8072 116.913 40.3633 116.913 39.7776V33.482C116.913 32.818 117.308 32.4525 118.029 32.4525C118.93 32.4525 120.379 32.8444 121.348 33.2107C122.1 33.4896 122.458 33.8174 122.501 34.2561V39.7776ZM122.501 30.7461C120.759 30.0934 118.476 29.596 117.183 29.596C115.11 29.596 113.774 30.8539 113.774 32.7969V40.3474C113.774 42.1427 115.246 43.5476 117.123 43.5476H121.276C121.697 43.5476 122.117 43.4647 122.501 43.3034V45.7431C122.501 46.331 122.035 46.7757 121.41 46.7757H115.283V49.3737H122.288C124.166 49.3737 125.64 47.968 125.64 46.1705V29.6555H122.623L122.501 30.7461ZM134.281 39.81L130.907 29.6555H127.569L131.699 41.8548C131.793 42.1461 131.944 42.4158 132.143 42.6483C132.342 42.8808 132.585 43.0715 132.858 43.2092L130.981 48.9757H134.131L136.074 43.427L140.986 29.6525H137.708L134.281 39.81ZM104.371 15.7061C104.364 15.6737 104.36 15.6406 104.36 15.6074V11.0521C104.36 10.6277 104.715 10.3059 105.513 10.0097C106.791 9.52585 107.933 9.24924 108.652 9.24924C109.373 9.24924 109.771 9.61478 109.771 10.2818V16.236C109.771 16.8216 109.302 17.2678 108.683 17.2678H104.379V15.7551L104.371 15.7061ZM109.495 6.39575C108.237 6.39575 106.16 6.86003 104.36 7.54288V0.626221H101.22V20.006H109.553C111.436 20.006 112.904 18.6003 112.904 16.8058V9.59293C112.907 7.65292 111.569 6.39575 109.495 6.39575ZM152.802 6.08372C151.683 6.21562 149.415 6.68592 148.058 7.18562L147.947 6.11613H145.007V20.0082H148.143V10.7408C148.143 10.2886 148.487 9.97203 149.296 9.66829C150.101 9.36456 152.007 8.95907 152.847 8.84375L153.001 8.82491V6.06262L152.802 6.08372ZM106.908 30.7273L106.797 29.6578H103.854V43.5484H106.996V34.2855C106.996 33.8332 107.343 33.5092 108.152 33.213C108.967 32.9039 110.896 32.555 111.7 32.4442L111.851 32.4261V29.5937L111.643 29.6314C110.876 29.755 108.368 30.1952 106.908 30.7273ZM94.3596 10.7408C94.3596 10.2886 94.7063 9.97203 95.5187 9.66829C96.3199 9.36456 98.226 8.95907 99.0671 8.84375L99.2201 8.82491V6.06262L99.0159 6.08372C97.8936 6.21562 95.6325 6.68592 94.2774 7.18562L94.1636 6.11613H91.2204V20.0082H94.3565V10.7408H94.3596ZM81.1624 17.6386C80.4064 17.6492 80.0431 17.319 80.0431 16.6226V14.9947C80.0431 14.3013 80.4064 13.9568 81.1624 13.947C82.5454 13.9274 83.5908 13.9922 84.2668 14.1317C84.7816 14.2312 85.3921 14.4784 85.3921 15.0934V16.037C85.3921 16.4885 85.0484 16.8133 84.2359 17.1253C83.4174 17.4449 82.3555 17.6258 81.1624 17.6386ZM85.1479 6.11312H78.5259V8.77064H84.2729C84.8924 8.77064 85.3921 9.2304 85.3921 9.80019V11.9769C83.5742 11.4741 81.7811 11.4282 80.4064 11.447C78.3353 11.4772 76.9975 12.7479 76.9975 14.6909V17.0929C76.9975 19.036 78.3353 20.2743 80.4064 20.2509C81.0486 20.2419 83.2644 20.1454 85.4547 19.2967L85.5715 20.0112H88.5282V9.31406C88.5282 7.52102 87.0427 6.11312 85.1479 6.11312ZM12.1556 34.1913H0V43.5529H12.1556V34.1913Z" fill="white"/>
<path d="M48.6263 34.1915H17.9683V43.5531H48.6263V34.1915ZM71.5801 8.63145H63.7567V0.626465H60.5271V20.0062H63.7567V11.4872H71.5801V20.0055H74.8134V0.626465H71.5801V8.63145Z" fill="white"/>
<path d="M48.6264 20.052H0V29.3673H48.6264V20.052Z" fill="white"/>
<path d="M12.1556 6.07886H0V15.3934H12.1556V6.07886Z" fill="white"/>
<path d="M48.6264 6.07886H17.9682V15.3934H48.6264V6.07886Z" fill="white"/>
</g>
</svg>
